<svg width="175" height="2" viewBox="0 0 175 2" fill="none" xmlns="http://www.w3.org/2000/svg">
<g id="intro-underline">
<path id="Line 1" d="M156 2C156.552 2 157 1.55228 157 1C157 0.447715 156.552 0 156 0V2ZM18 2H156V0H18V2Z" fill="#00B3CA"/>
<path id="Line 2" d="M174 2C174.552 2 175 1.55228 175 1C175 0.447715 174.552 0 174 0V2ZM157.5 2C158.052 2 158.5 1.55228 158.5 1C158.5 0.447715 158.052 0 157.5 0V2ZM160.5 0C159.948 0 159.5 0.447715 159.5 1C159.5 1.55228 159.948 2 160.5 2V0ZM163.5 2C164.052 2 164.5 1.55228 164.5 1C164.5 0.447715 164.052 0 163.5 0V2ZM166.5 0C165.948 0 165.5 0.447715 165.5 1C165.5 1.55228 165.948 2 166.5 2V0ZM169.5 2C170.052 2 170.5 1.55228 170.5 1C170.5 0.447715 170.052 0 169.5 0V2ZM172.5 0C171.948 0 171.5 0.447715 171.5 1C171.5 1.55228 171.948 2 172.5 2V0ZM156 2L157.5 2V0L156 0V2ZM160.5 2L163.5 2V0L160.5 0V2ZM166.5 2L169.5 2V0L166.5 0V2ZM172.5 2L174 2V0L172.5 0V2Z" fill="#00B3CA"/>
<path id="Line 3" d="M1 2C0.447716 2 0 1.55228 0 1C0 0.447715 0.447716 0 1 0V2ZM17.5 2C16.9477 2 16.5 1.55228 16.5 1C16.5 0.447715 16.9477 0 17.5 0V2ZM14.5 0C15.0523 0 15.5 0.447715 15.5 1C15.5 1.55228 15.0523 2 14.5 2V0ZM11.5 2C10.9477 2 10.5 1.55228 10.5 1C10.5 0.447715 10.9477 0 11.5 0V2ZM8.5 0C9.05229 0 9.5 0.447715 9.5 1C9.5 1.55228 9.05229 2 8.5 2V0ZM5.5 2C4.94772 2 4.5 1.55228 4.5 1C4.5 0.447715 4.94772 0 5.5 0V2ZM2.5 0C3.05228 0 3.5 0.447715 3.5 1C3.5 1.55228 3.05228 2 2.5 2V0ZM19 2L17.5 2V0L19 0V2ZM14.5 2L11.5 2V0L14.5 0V2ZM8.5 2L5.5 2V0L8.5 0V2ZM2.5 2L1 2V0L2.5 0V2Z" fill="#00B3CA"/>
</g>
</svg>
